<svg width="14" height="14" viewBox="0 0 14 14" fill="none" xmlns="http://www.w3.org/2000/svg">
<path d="M6.69922 0C4.85807 0 3.28125 0.65625 1.96875 1.96875C0.65625 3.28125 0 4.85807 0 6.69922C0 8.55859 0.65625 10.1445 1.96875 11.457C3.28125 12.7695 4.85807 13.4258 6.69922 13.4258C8.55859 13.4258 10.1445 12.7695 11.457 11.457C12.7695 10.1445 13.4258 8.55859 13.4258 6.69922C13.4258 4.85807 12.7695 3.28125 11.457 1.96875C10.1445 0.65625 8.55859 0 6.69922 0ZM6.69922 12.8242C5.02214 12.8242 3.58203 12.2318 2.37891 11.0469C1.17578 9.84375 0.574219 8.39453 0.574219 6.69922C0.574219 5.02214 1.17578 3.58203 2.37891 2.37891C3.58203 1.17578 5.02214 0.574219 6.69922 0.574219C8.39453 0.574219 9.83464 1.17578 11.0195 2.37891C12.2227 3.58203 12.8242 5.02214 12.8242 6.69922C12.8242 8.39453 12.2227 9.84375 11.0195 11.0469C9.83464 12.2318 8.39453 12.8242 6.69922 12.8242ZM8.44922 10.5H7V5.55078C7 5.35026 6.89974 5.25 6.69922 5.25H5.55078C5.35026 5.25 5.25 5.35026 5.25 5.55078C5.25 5.73307 5.35026 5.82422 5.55078 5.82422H6.42578V10.5H4.94922C4.76693 10.5 4.67578 10.6003 4.67578 10.8008C4.67578 10.9831 4.76693 11.0742 4.94922 11.0742H8.44922C8.64974 11.0742 8.75 10.9831 8.75 10.8008C8.75 10.6003 8.64974 10.5 8.44922 10.5ZM5.71484 3.33594C5.82422 3.44531 5.96094 3.5 6.125 3.5C6.28906 3.5 6.42578 3.44531 6.53516 3.33594C6.64453 3.20833 6.69922 3.07161 6.69922 2.92578C6.69922 2.76172 6.64453 2.625 6.53516 2.51562C6.42578 2.38802 6.28906 2.32422 6.125 2.32422C5.96094 2.32422 5.82422 2.38802 5.71484 2.51562C5.60547 2.625 5.55078 2.76172 5.55078 2.92578C5.55078 3.07161 5.60547 3.20833 5.71484 3.33594ZM6.125 2.92578V3.19922V2.92578Z" fill="white"/>
</svg>
